Coordinates
nRows=12
nColumns=24

# SIMM Motion File Header:
name Coordinates
datacolumns 24
datarows 12
otherdata 1
range 0.50000000000000000000 0.51100000000000001000

Units are S.I. units (second, meters, Newtons, ...)
Angles are in degrees.

endheader
time	pelvis_tx	pelvis_ty	pelvis_tz	pelvis_tilt	pelvis_list	pelvis_rotation	hip_flexion_r	hip_adduction_r	hip_rotation_r	knee_angle_r	ankle_angle_r	subtalar_angle_r	mtp_angle_r	hip_flexion_l	hip_adduction_l	hip_rotation_l	knee_angle_l	ankle_angle_l	subtalar_angle_l	mtp_angle_l	lumbar_extension	lumbar_bending	lumbar_rotation
      0.50000000000000000000	      0.58922528784976635000	      1.03209757094355600000	     -0.02154827863811618200	      4.83285231036843220000	      0.31108431079652171000	     -0.16965457063743777000	     19.21083477126738300000	     -4.28305912512650270000	    -10.32208877520592900000	    -19.84162221462231600000	      0.94165837193947899000	     -0.00035414670041163728	     -0.00000008991791164544	    -14.20276893740474700000	      3.41759680404794790000	     -2.38710110975655350000	     -3.30657199257672700000	      8.73564115822894040000	     -0.00000266756485039422	     -0.00000018982668684021	    -17.03563559364672700000	     -2.15616225407724160000	     -5.91927822024392560000
      0.50100000000000000000	      0.58915861086609855000	      1.03186722510431950000	     -0.02152590011853482500	      4.82682390668805010000	      0.35245917615642380000	     -0.16495447444878772000	     19.17216361833091300000	     -4.29926662029124440000	    -10.25137516474274300000	    -19.46143635943686700000	      0.94918912618472395000	     -0.00036218476225267275	     -0.00000368826704908525	    -14.28095837105692000000	      3.45826941325365980000	     -2.37409479378065670000	     -3.27857048131109740000	      8.77517258019530110000	      0.00002128722204067196	      0.00070344027242138151	    -17.03000053452895200000	     -2.18815428077264060000	     -5.92566852879387530000
      0.50200000000000000000	      0.58909242881024748000	      1.03163550950658520000	     -0.02150264060947855100	      4.82078838730724700000	      0.39381656936617515000	     -0.16024992089075252000	     19.13348052937530500000	     -4.31547180961157740000	    -10.18067268358832100000	    -19.08141073409926100000	      0.95672139944464041000	     -0.00037754700577625068	     -0.00001043528543234948	    -14.35916120242578700000	      3.49892308390976400000	     -2.36110285534433300000	     -3.25061710446958640000	      8.81449528534243680000	      0.00005795874581858564	      0.00176428394985616810	    -17.02439113713868900000	     -2.22012971451477800000	     -5.93204884999712160000
      0.50300000000000000000	      0.58902674626572693000	      1.03140243073288680000	     -0.02147849964450084000	      4.81474446213456630000	      0.43514396574393349000	     -0.15553651124508455000	     19.09480670231595300000	     -4.33166912867564500000	    -10.11000106615049700000	    -18.70166236584254400000	      0.96426306363236269000	     -0.00039296967349189838	     -0.00001817619524233165	    -14.43736158751854000000	      3.53953977839699660000	     -2.34812151775178180000	     -3.22274180592545180000	      8.85380716123394330000	      0.00009535899398500915	      0.00281888218741725230	    -17.01880594750231500000	     -2.25207390851400600000	     -5.93841855279284040000
      0.50400000000000000000	      0.58896156347031436000	      1.03116800056154870000	     -0.02145347552840975000	      4.80868970092944890000	      0.47642675187844974000	     -0.15080960113262601000	     19.05616762133136500000	     -4.34785088617605450000	    -10.03937625279247000000	    -18.32232368799347100000	      0.97181799419975101000	     -0.00040839349296536873	     -0.00002663301305722663	    -14.51553768622517100000	      3.58009845062933610000	     -2.33515594078719780000	     -3.19497708168165450000	      8.89310798817374430000	      0.00013399734388336933	      0.00385536618649905860	    -17.01324290041385400000	     -2.28396995415048740000	     -5.94477628689321320000
      0.50500000000000000000	      0.58889688036016175000	      1.03093223156989660000	     -0.02142756690406496400	      4.80262167760328750000	      0.51765033358102797000	     -0.14606456926847952000	     19.01758874918990100000	     -4.36400935900614950000	     -9.96881409461503050000	    -17.94352716329188600000	      0.97939021410407456000	     -0.00042381399677681635	     -0.00003573147816905679	    -14.59366770626702700000	      3.62057806197515530000	     -2.32221151943738850000	     -3.16735542316286000000	      8.93239154402017380000	      0.00017391065527969939	      0.00487264850121817230	    -17.00769996895983700000	     -2.31580094412184550000	     -5.95112066963333230000
      0.50600000000000001000	      0.58883269656556614000	      1.03069513698260230000	     -0.02140077277631000100	      4.79653798462176530000	      0.55880017053810838000	     -0.14129681111888620000	     18.97909544545906300000	     -4.38013682416712590000	     -9.89833040886862920000	    -17.56540501372376900000	      0.98698369670783359000	     -0.00043920768482817225	     -0.00004540741464998388	    -14.67172999809316800000	      3.66095761823149330000	     -2.30929375423395510000	     -3.13990925881165950000	      8.97164768576984170000	      0.00021473884658862656	      0.00587677844730858950	    -17.00217517848982100000	     -2.34755001010229680000	     -5.95745030542138030000
      0.50700000000000001000	      0.58876901169509976000	      1.03045673117014200000	     -0.02137309242082528400	      4.79043623169931450000	      0.59986176397132496000	     -0.13650173500420676000	     18.94071299401441500000	     -4.39622554576042470000	     -9.82794098064401030000	    -17.18808913755116300000	      0.99460233850749291000	     -0.00045455226355641670	     -0.00005559896371488465	    -14.74970303398492400000	      3.70121614407269380000	     -2.29640809649061910000	     -3.11267087001225160000	      9.01086620266560520000	      0.00025636890980245016	      0.00687409858250173560	    -16.99666657626048400000	     -2.37920031367276240000	     -5.96376380067333490000
      0.50800000000000001000	      0.58870582562131213000	      1.03021703017334110000	     -0.02134452531037138400	      4.78431404197525630000	      0.64082064629575031000	     -0.13167475588488864000	     18.90246663418121600000	     -4.41226776457810740000	     -9.75766156685189220000	    -16.81171103091113000000	      1.00224993818124690000	     -0.00046984217017120259	     -0.00006624389125924704	    -14.82756538063132900000	      3.74133266720650770000	     -2.28355978647989270000	     -3.08567232868153910000	      9.05004108841556130000	      0.00029893060615606592	      0.00786358418588315590	    -16.99117219879657600000	     -2.41073503685339970000	     -5.97005978114235170000
      0.50900000000000001000	      0.58864313842061999000	      1.02997605157340470000	     -0.02131507112474189900	      4.77816905334659840000	      0.68166238782877686000	     -0.12681129603548125000	     18.86438153939012700000	     -4.42825570040630810000	     -9.68750789167918210000	    -16.43640172549601200000	      1.00993018113960420000	     -0.00048508843929104630	     -0.00007727974571226375	    -14.90529572827255000000	      3.78128622780678780000	     -2.27075382858109580000	     -3.05894547600208670000	      9.08917103649070410000	      0.00034267112218431189	      0.00883597264281801510	    -16.98569007953050700000	     -2.44213738997229420000	     -5.97633689194752990000
      0.51000000000000001000	      0.58858094996469856000	      1.02973381372388740000	     -0.02128472984618188000	      4.77199893943025000000	      0.72237264567153570000	     -0.12190680413442333000	     18.82648273030350300000	     -4.44418159380413600000	     -9.61749561957741150000	    -16.06229174383441800000	      1.01764663592351430000	     -0.00050028089627077589	     -0.00008864915365711540	    -14.98287299059827900000	      3.82105595481331140000	     -2.25799530934171330000	     -3.03252197727467720000	      9.12825038011632370000	      0.00038757853105019982	      0.00979006740688501650	    -16.98021831282530800000	     -2.47339066609465300000	     -5.98259377665646230000
      0.51100000000000001000	      0.58851925986623965000	      1.02949033559604520000	     -0.02125350176097258800	      4.76580141211537800000	      0.76293716988671789000	     -0.11695675645483246000	     18.78879505124457700000	     -4.46003770787605270000	     -9.54764035082145670000	    -15.68951103479241900000	      1.02540273884244510000	     -0.00051539212204323656	     -0.00010029994234309650	    -15.06027633378758100000	      3.86062107200655720000	     -2.24528937312006380000	     -3.00643328978785140000	      9.16726941179983430000	      0.00043354881246404593	      0.01073220096455937800	    -16.97475506074138700000	     -2.50447824946573180000	     -5.98882907671638250000
